<svg width="342" height="311" viewBox="0 0 342 311" fill="none" xmlns="http://www.w3.org/2000/svg">
<rect width="342" height="311" fill="white"/>
<path d="M116 109.307C115.34 112.617 112.02 121.927 110.005 128.782C107.852 136.105 108 141.607 107.17 151.587C105.591 170.568 105.34 175.947 104.67 182.447C103.906 189.861 101.34 194.947 100.835 200.122C100.352 205.072 98.34 211.607 97.17 216.622C95.7927 222.526 94.34 227.287 93.67 233.117C93.036 238.634 90.34 242.947 89.835 247.292C89 251.297 88.34 254.627 87.34 258.772C87 261.597 87 265.887 86 271.307" stroke="black" stroke-width="20" stroke-linecap="square"/>
<path d="M86 271.307C89.64 270.977 112.82 270.307 125.815 268.482C135.575 267.112 150.98 266.647 159.135 266.142C160.99 265.977 161.98 265.647 172.72 265.477C183.46 265.307 203.92 265.307 225 264.307" stroke="black" stroke-width="20" stroke-linecap="square"/>
<path d="M213 101.307C213.33 103.627 215.32 108.947 217.16 114.122C219.101 119.582 220.32 128.267 221.995 133.292C223.33 137.297 224.66 141.287 226.825 145.292C228.86 149.056 230.32 153.287 231.995 158.122C233.466 162.369 235 166.287 235.995 171.122C237.056 176.276 237.66 182.287 238.165 187.122C238.615 191.433 240.66 195.287 241.33 199.457C242.161 204.628 244 208.287 244.83 212.292C245.649 216.244 246 220.287 246.995 225.122C247.99 229.959 248.66 235.287 249.165 239.292C249.687 243.43 251.66 247.287 252.83 251.457C254.157 256.185 255.33 259.297 255.335 260.962C255.37 272.615 223.02 262.967 215.695 265.132C207.328 267.605 195.02 264.987 191.015 263.312C189.02 262.647 185.69 262.307 181.695 262.142C180.01 261.977 179.02 261.647 178 261.307" stroke="black" stroke-width="20" stroke-linecap="square"/>
<path d="M110 100.307C112.65 100.307 118.64 100.967 124.645 101.472C127.023 101.672 144.17 102.307 170.155 102.637C187.107 102.852 192.3 105.967 200.305 108.132C204.99 109.637 208.98 110.967 215.475 111.472C216.99 111.637 217.98 111.967 218 112.307" stroke="black" stroke-width="20" stroke-linecap="square"/>
<path d="M146 100.307C143.01 86.3772 141 64.3872 143.82 58.1522C147.021 51.0747 156.98 45.6472 163.475 42.6522C171.267 39.0589 183.98 41.9672 188.65 45.2922C193.324 48.6199 194 55.2872 195.66 61.2822C197.705 68.6692 194.34 76.2872 193.17 80.2922C192.34 85.2872 190.34 91.2872 188.84 95.2922C188.34 96.2972 187.68 97.2872 187 99.3072" stroke="black" stroke-width="20" stroke-linecap="square"/>
<path d="M172 155.307C167.7 159.607 159.68 168.287 154.855 173.452C149.051 179.665 144.69 184.617 141.85 188.447C137.039 194.935 160.98 194.967 175.275 201.612C182.99 206.297 186.98 209.627 190.985 211.632C191.99 212.297 192.98 213.287 195 214.307" stroke="black" stroke-width="20" stroke-linecap="square"/>
</svg>
